<?xml version="1.0" encoding="utf-8"?>
<!-- Generator: Adobe Illustrator 16.0.1, SVG Export Plug-In . SVG Version: 6.00 Build 0)  -->
<!DOCTYPE svg PUBLIC "-//W3C//DTD SVG 1.1//EN" "http://www.w3.org/Graphics/SVG/1.1/DTD/svg11.dtd">
<svg version="1.1" id="Слой_1" xmlns="http://www.w3.org/2000/svg" xmlns:xlink="http://www.w3.org/1999/xlink" x="0px" y="0px"
	 width="300px" height="80px" viewBox="0 0 300 80" enable-background="new 0 0 300 80" xml:space="preserve">
<g>
	<g>
		<path fill="#FFFFFF" d="M36.66,60.29c-4.119-7.17-8.26-14.33-12.409-21.48c-1.1-1.899-2.871-2.479-4.531-1.529
			c-1.719,0.989-2.09,2.79-0.95,4.769c2.052,3.571,4.111,7.131,6.171,10.69s4.109,7.131,6.181,10.69
			c1.149,1.98,2.898,2.56,4.61,1.56C37.381,64.02,37.76,62.2,36.66,60.29z"/>
		<path fill="#FFFFFF" d="M46.99,17.722c0,1.747-1.417,3.163-3.165,3.163h-9.672c-1.746,0-3.164-1.416-3.164-3.163l0,0
			c0-1.747,1.418-3.165,3.164-3.165h9.672C45.573,14.557,46.99,15.975,46.99,17.722L46.99,17.722z"/>
		<path fill="#FFFFFF" d="M34.01,10.391c0.22,0.008,0.677,0.01,2.24,0.01h-2.1C34.101,10.4,34.06,10.4,34.01,10.391z"/>
		<path fill="#FFFFFF" d="M46.991,72.829c0,1.751-1.42,3.171-3.161,3.171c0,0-12.73-0.01-15.339,0c-1.602,0-2.66-0.661-3.44-2.02
			C18.93,63.34,12.79,52.71,6.641,42.09c-0.819-1.4-0.87-2.67-0.051-4.1c6.151-10.6,12.28-21.21,18.38-31.84
			C25.841,4.65,27.031,4,28.75,4c4.52,0.01,3.511,0.01,5.201,0.01C34.01,4,34.081,4,34.15,4h9.68c1.741,0,3.161,1.43,3.161,3.2
			c0,1.76-1.42,3.2-3.161,3.2c0,0-9.84-0.01-13.08,0c-0.429,0-1.039,0.35-1.258,0.719C24.081,20.41,18.711,29.73,13.31,39.02
			c-0.429,0.74-0.379,1.261,0.042,1.971c2.689,4.579,5.329,9.2,7.979,13.799c2.68,4.631,5.381,9.251,8.009,13.921
			c0.431,0.749,0.9,0.96,1.71,0.96h12.78C45.571,69.67,46.991,71.079,46.991,72.829z"/>
	</g>
	<g>
		<path fill="#FFFFFF" d="M74.902,46.696H61.865c0.016,1.514,0.321,2.849,0.916,4.004c0.594,1.156,1.383,2.026,2.367,2.612
			c0.985,0.586,2.071,0.879,3.26,0.879c0.797,0,1.525-0.094,2.186-0.281c0.658-0.187,1.297-0.479,1.916-0.879
			c0.618-0.398,1.188-0.825,1.709-1.281c0.521-0.455,1.196-1.074,2.026-1.855c0.342-0.293,0.83-0.439,1.465-0.439
			c0.684,0,1.236,0.188,1.66,0.562c0.423,0.375,0.635,0.903,0.635,1.587c0,0.603-0.236,1.307-0.708,2.111
			c-0.473,0.807-1.184,1.579-2.137,2.32c-0.951,0.74-2.148,1.354-3.588,1.843c-1.441,0.488-3.098,0.732-4.969,0.732
			c-4.281,0-7.609-1.221-9.985-3.662c-2.377-2.441-3.564-5.753-3.564-9.937c0-1.969,0.293-3.797,0.879-5.48
			c0.586-1.686,1.44-3.129,2.563-4.334c1.123-1.204,2.506-2.128,4.15-2.771c1.644-0.643,3.467-0.964,5.469-0.964
			c2.604,0,4.838,0.55,6.701,1.647c1.864,1.1,3.26,2.52,4.188,4.261c0.928,1.742,1.392,3.516,1.392,5.322
			c0,1.677-0.48,2.763-1.44,3.259C77.994,46.448,76.644,46.696,74.902,46.696z M61.865,42.912H73.95
			c-0.163-2.278-0.777-3.983-1.843-5.115c-1.066-1.131-2.471-1.696-4.212-1.696c-1.66,0-3.023,0.573-4.089,1.722
			C62.74,38.969,62.093,40.666,61.865,42.912z"/>
		<path fill="#FFFFFF" d="M104.272,54.802v-0.659c-0.896,1.025-1.778,1.859-2.649,2.502c-0.87,0.644-1.814,1.132-2.832,1.465
			c-1.017,0.334-2.128,0.501-3.332,0.501c-1.596,0-3.072-0.338-4.432-1.013c-1.358-0.676-2.535-1.64-3.527-2.894
			c-0.993-1.253-1.746-2.726-2.258-4.419c-0.514-1.692-0.77-3.523-0.77-5.493c0-4.166,1.017-7.413,3.052-9.741
			c2.034-2.327,4.712-3.491,8.032-3.491c1.92,0,3.54,0.329,4.858,0.989c1.318,0.658,2.604,1.672,3.857,3.039v-9.839
			c0-1.367,0.272-2.4,0.817-3.101c0.546-0.699,1.322-1.05,2.332-1.05c1.009,0,1.786,0.321,2.332,0.964
			c0.545,0.644,0.817,1.592,0.817,2.845v29.395c0,1.27-0.293,2.222-0.879,2.856s-1.343,0.952-2.271,0.952
			c-0.912,0-1.664-0.329-2.258-0.989C104.569,56.963,104.272,56.022,104.272,54.802z M91.162,45.012
			c0,1.807,0.281,3.345,0.842,4.614c0.563,1.27,1.331,2.226,2.308,2.868c0.977,0.644,2.042,0.965,3.198,0.965
			c1.172,0,2.242-0.305,3.211-0.916c0.968-0.609,1.741-1.546,2.318-2.807c0.578-1.262,0.867-2.836,0.867-4.725
			c0-1.773-0.289-3.3-0.867-4.578c-0.577-1.277-1.358-2.254-2.344-2.93c-0.984-0.675-2.063-1.013-3.234-1.013
			c-1.221,0-2.312,0.346-3.271,1.038c-0.961,0.691-1.705,1.684-2.234,2.979C91.427,41.801,91.162,43.303,91.162,45.012z"/>
		<path fill="#FFFFFF" d="M134.57,54.851v-0.854c-0.798,1.01-1.636,1.855-2.515,2.539s-1.84,1.192-2.881,1.525
			c-1.042,0.334-2.23,0.501-3.564,0.501c-1.611,0-3.056-0.334-4.333-1.001c-1.278-0.667-2.268-1.587-2.967-2.759
			c-0.83-1.416-1.245-3.45-1.245-6.104V35.49c0-1.334,0.301-2.332,0.903-2.99c0.602-0.66,1.399-0.989,2.393-0.989
			c1.009,0,1.822,0.334,2.441,1.001c0.618,0.668,0.928,1.66,0.928,2.979v10.669c0,1.547,0.13,2.845,0.391,3.894
			c0.26,1.051,0.729,1.872,1.404,2.467c0.675,0.594,1.59,0.891,2.746,0.891c1.123,0,2.181-0.333,3.174-1.001
			c0.992-0.667,1.717-1.538,2.173-2.612c0.374-0.943,0.562-3.011,0.562-6.201V35.49c0-1.318,0.309-2.311,0.928-2.979
			c0.618-0.667,1.424-1.001,2.417-1.001c0.992,0,1.79,0.329,2.393,0.989c0.602,0.658,0.903,1.656,0.903,2.99v19.312
			c0,1.27-0.289,2.222-0.867,2.856c-0.577,0.635-1.322,0.952-2.233,0.952c-0.912,0-1.664-0.329-2.259-0.989
			C134.867,56.963,134.57,56.039,134.57,54.851z"/>
		<path fill="#FFFFFF" d="M164.063,55.559l-5.884-9.668l-3.613,3.418v5.298c0,1.286-0.338,2.274-1.013,2.966
			c-0.676,0.692-1.453,1.038-2.332,1.038c-1.025,0-1.831-0.342-2.417-1.025s-0.879-1.692-0.879-3.027V26.14
			c0-1.48,0.284-2.608,0.854-3.382c0.569-0.772,1.383-1.159,2.441-1.159c1.025,0,1.839,0.351,2.441,1.05
			c0.602,0.7,0.903,1.733,0.903,3.101v16.162l7.495-7.861c0.928-0.977,1.636-1.644,2.124-2.002c0.488-0.357,1.082-0.537,1.782-0.537
			c0.83,0,1.521,0.265,2.075,0.794c0.553,0.528,0.83,1.192,0.83,1.989c0,0.977-0.903,2.279-2.71,3.906l-3.54,3.247l6.836,10.742
			c0.504,0.798,0.866,1.404,1.087,1.818c0.219,0.416,0.329,0.811,0.329,1.185c0,1.059-0.289,1.892-0.866,2.503
			c-0.578,0.609-1.34,0.915-2.283,0.915c-0.814,0-1.44-0.22-1.88-0.659S164.811,56.715,164.063,55.559z"/>
		<path fill="#FFFFFF" d="M191.064,54.851c-1.611,1.254-3.17,2.193-4.676,2.819c-1.505,0.627-3.194,0.94-5.065,0.94
			c-1.709,0-3.21-0.338-4.505-1.013c-1.293-0.676-2.291-1.591-2.99-2.747c-0.7-1.155-1.05-2.408-1.05-3.76
			c0-1.822,0.577-3.377,1.733-4.663c1.155-1.285,2.742-2.148,4.761-2.588c0.423-0.098,1.473-0.317,3.149-0.659
			c1.676-0.342,3.113-0.655,4.309-0.94c1.197-0.284,2.494-0.63,3.895-1.037c-0.082-1.758-0.436-3.048-1.063-3.869
			c-0.626-0.822-1.925-1.233-3.894-1.233c-1.693,0-2.966,0.236-3.821,0.708c-0.854,0.473-1.586,1.181-2.197,2.124
			c-0.609,0.944-1.041,1.566-1.293,1.868c-0.253,0.301-0.794,0.451-1.624,0.451c-0.749,0-1.396-0.24-1.94-0.721
			c-0.546-0.479-0.818-1.094-0.818-1.843c0-1.172,0.415-2.311,1.245-3.418c0.83-1.106,2.124-2.018,3.882-2.734
			c1.758-0.716,3.946-1.074,6.567-1.074c2.93,0,5.232,0.346,6.909,1.038c1.676,0.691,2.86,1.786,3.553,3.283
			c0.691,1.498,1.037,3.483,1.037,5.957c0,1.563-0.004,2.89-0.012,3.979c-0.009,1.091-0.021,2.304-0.037,3.638
			c0,1.254,0.207,2.56,0.623,3.918c0.414,1.359,0.622,2.234,0.622,2.625c0,0.684-0.321,1.307-0.964,1.867
			c-0.644,0.563-1.372,0.843-2.186,0.843c-0.684,0-1.359-0.321-2.026-0.964C192.521,57.003,191.813,56.071,191.064,54.851z
			 M190.625,45.207c-0.977,0.358-2.396,0.736-4.26,1.135c-1.864,0.399-3.154,0.692-3.87,0.879c-0.717,0.188-1.4,0.554-2.051,1.1
			c-0.651,0.545-0.977,1.306-0.977,2.282c0,1.01,0.382,1.868,1.147,2.575c0.765,0.709,1.766,1.063,3.003,1.063
			c1.318,0,2.535-0.289,3.649-0.867c1.115-0.577,1.933-1.321,2.454-2.233c0.602-1.009,0.903-2.669,0.903-4.98V45.207z"/>
		<path fill="#FFFFFF" d="M203.052,32.097h0.732v-4.004c0-1.074,0.028-1.917,0.085-2.526c0.058-0.611,0.216-1.136,0.477-1.575
			c0.26-0.455,0.635-0.826,1.123-1.11c0.488-0.285,1.033-0.428,1.636-0.428c0.846,0,1.611,0.317,2.295,0.952
			c0.455,0.424,0.745,0.94,0.866,1.55c0.123,0.611,0.184,1.478,0.184,2.601v4.541h2.441c0.943,0,1.664,0.224,2.16,0.671
			c0.497,0.448,0.745,1.022,0.745,1.722c0,0.896-0.354,1.522-1.062,1.88c-0.709,0.358-1.722,0.537-3.04,0.537h-1.245v12.256
			c0,1.042,0.037,1.844,0.109,2.404c0.074,0.563,0.27,1.018,0.586,1.367c0.318,0.351,0.834,0.525,1.551,0.525
			c0.391,0,0.919-0.069,1.587-0.207c0.667-0.139,1.188-0.208,1.563-0.208c0.537,0,1.021,0.216,1.452,0.647
			c0.432,0.431,0.647,0.964,0.647,1.599c0,1.074-0.586,1.896-1.758,2.466s-2.856,0.854-5.054,0.854c-2.084,0-3.662-0.351-4.736-1.05
			s-1.778-1.668-2.111-2.905c-0.334-1.236-0.501-2.889-0.501-4.956V36.906h-0.879c-0.961,0-1.693-0.228-2.197-0.684
			c-0.505-0.455-0.757-1.033-0.757-1.733c0-0.699,0.265-1.273,0.793-1.722C201.273,32.32,202.042,32.097,203.052,32.097z"/>
		<path fill="#FFFFFF" d="M245.337,45.061c0,1.986-0.31,3.817-0.928,5.493c-0.619,1.677-1.514,3.117-2.686,4.321
			c-1.172,1.205-2.572,2.128-4.199,2.771c-1.628,0.643-3.459,0.964-5.493,0.964c-2.019,0-3.833-0.326-5.444-0.977
			s-3.007-1.583-4.187-2.796c-1.181-1.212-2.076-2.645-2.686-4.297c-0.611-1.651-0.916-3.479-0.916-5.48
			c0-2.018,0.309-3.865,0.928-5.542c0.618-1.676,1.505-3.108,2.661-4.297c1.155-1.188,2.555-2.104,4.199-2.747
			c1.644-0.643,3.458-0.964,5.444-0.964c2.018,0,3.849,0.326,5.493,0.977c1.644,0.651,3.052,1.579,4.224,2.783
			c1.172,1.205,2.063,2.637,2.674,4.297C245.031,41.228,245.337,43.059,245.337,45.061z M238.647,45.061
			c0-2.718-0.599-4.834-1.794-6.348c-1.197-1.514-2.805-2.271-4.822-2.271c-1.303,0-2.45,0.338-3.442,1.013
			c-0.993,0.676-1.758,1.673-2.295,2.991s-0.806,2.856-0.806,4.614c0,1.742,0.265,3.264,0.793,4.565
			c0.529,1.303,1.286,2.299,2.271,2.991c0.984,0.691,2.144,1.037,3.479,1.037c2.018,0,3.625-0.761,4.822-2.283
			C238.049,49.85,238.647,47.746,238.647,45.061z"/>
	</g>
	<g>
		<path fill="#FFFFFF" d="M264.269,64.989c1.712,1,3.461,0.421,4.61-1.56c2.071-3.56,4.121-7.131,6.181-10.69
			s4.119-7.119,6.171-10.69c1.14-1.979,0.769-3.779-0.95-4.769c-1.66-0.95-3.432-0.37-4.531,1.529
			c-4.149,7.15-8.29,14.311-12.409,21.48C262.24,62.2,262.619,64.02,264.269,64.989z"/>
		<path fill="#FFFFFF" d="M253.01,17.722c0,1.747,1.417,3.163,3.165,3.163h9.672c1.746,0,3.164-1.416,3.164-3.163l0,0
			c0-1.747-1.418-3.165-3.164-3.165h-9.672C254.427,14.557,253.01,15.975,253.01,17.722L253.01,17.722z"/>
		<path fill="#FFFFFF" d="M265.99,10.391c-0.22,0.008-0.677,0.01-2.24,0.01h2.1C265.899,10.4,265.94,10.4,265.99,10.391z"/>
		<path fill="#FFFFFF" d="M253.009,72.829c0,1.751,1.42,3.171,3.161,3.171c0,0,12.73-0.01,15.339,0c1.602,0,2.66-0.661,3.44-2.02
			c6.121-10.641,12.261-21.271,18.41-31.891c0.819-1.4,0.87-2.67,0.051-4.1c-6.151-10.6-12.28-21.21-18.38-31.84
			c-0.871-1.5-2.062-2.15-3.78-2.15c-4.52,0.01-3.511,0.01-5.201,0.01C265.99,4,265.919,4,265.85,4h-9.68
			c-1.741,0-3.161,1.43-3.161,3.2c0,1.76,1.42,3.2,3.161,3.2c0,0,9.84-0.01,13.08,0c0.429,0,1.039,0.35,1.258,0.719
			c5.411,9.291,10.781,18.611,16.183,27.9c0.429,0.74,0.379,1.261-0.042,1.971c-2.689,4.579-5.329,9.2-7.979,13.799
			c-2.68,4.631-5.381,9.251-8.009,13.921c-0.431,0.749-0.9,0.96-1.71,0.96h-12.78C254.429,69.67,253.009,71.079,253.009,72.829z"/>
	</g>
</g>
</svg>
