<svg id="Layer_1" xmlns="http://www.w3.org/2000/svg" viewBox="0 0 316 204"><style>.st0{fill:#eeeded}.st1{fill:#99b85a}.st2{fill:#b9d37a}.st3{fill:#0065a3}.st4{fill:#5fb2de}.st5{fill:#1586ca}.st6{fill:#409dd2}.st7{fill:#b189c6}.st8{fill:#9a72ac}.st9{fill:#89cdef}.st10{fill:#e1a157}</style><g id="XMLID_578_"><g id="XMLID_1508_"><path class="st0" d="M188.2 19.9l6.6 41.4 2.2-1.9 2.5 1.1 1.7-1.8 2.2 1.2 1.9-1.9 2.6 1.2 2.1-1.9 2.2 1.2 2.1-1.9 2.6 1.1 2.2-1.9 2.8 1.1 1.9-1.8 2.6 1.1-6.7-42c-9.6 2.6-20.2 4.5-31.5 5.7zM145.3 21.4V64l2.4-1.5 2.4 1.5 2-1.5L154 64l2.2-1.6 2.4 1.6 2.4-1.5 2 1.5 2.3-1.5 2.5 1.5 2.4-1.5 2.6 1.5 2.1-1.5 2.4 1.5V21.4zM102.7 14.3l-6.7 42 2.6-1.1 1.9 1.8 2.8-1.1 2.2 1.9 2.6-1.1 2.1 1.9 2.2-1.2 2.1 1.9 2.6-1.2L119 60l2.2-1.2 1.7 1.8 2.5-1.1 2.2 1.9 6.6-41.4c-11.3-1.3-21.9-3.2-31.5-5.7z"/><path class="st1" d="M121.9 34.5l-.7-.1-4.8 5-.4 2.1 1.7.3-.3 2.1-6.7-1.1.3-2.1 1.6.3.3-2.1-2.9-6.3-.7-.1.3-2.1 6.1 1-.3 2.1-1.4-.2 1.4 3.4 2.5-2.8-1.3-.2.3-2.1 5.4.9-.4 2z" id="XMLID_1494_"/><path class="st1" d="M212.6 34.3l-.9.2 1 5c.7 3.7-.4 5.3-4.2 6.1-3.9.8-5.7 0-6.5-4l-1-5-1 .2-.4-2.1 5.7-1.1.4 2.1-1.3.3 1 5c.3 1.6.8 3 2.7 2.6 1.9-.4 1.9-1.7 1.5-3.4l-1-5-1.2.2-.4-2.1 5.2-1 .4 2z" id="XMLID_1503_"/><path class="st2" d="M155.3 44c0-3.9 2.4-6.3 6.5-6.4 4.1 0 6.6 2.3 6.6 6.2 0 3.9-2.4 6.3-6.5 6.4-4 0-6.6-2.3-6.6-6.2zm9.4-.1c0-1.8-.6-4.2-2.9-4.2-2.4 0-2.9 2.4-2.8 4.2 0 1.8.6 4.2 2.9 4.2 2.4 0 2.8-2.4 2.8-4.2z" id="XMLID_1504_"/><g id="XMLID_1505_"><path class="st3" d="M81.5 7.6c-.8-.1-4.2-.6-5.3-1.6-1.2-1.2-1.2-3.2 0-4.4 1.2-1.2 3.2-1.2 4.4 0 1.1 1 1.6 4.5 1.7 5.2 0 .2 0 .5-.2.6-.2.1-.4.2-.6.2zm-3.1-5.4c-.4 0-.8.2-1.1.5-.3.3-.5.7-.5 1.1s.2.8.5 1.1c.4.4 1.9.8 3.3 1-.3-1.5-.7-2.9-1.1-3.3-.3-.3-.7-.4-1.1-.4z" id="XMLID_1502_"/><path class="st3" d="M81.6 7.6c-.2 0-.3-.1-.5-.2-.2-.2-.3-.4-.3-.6 0-.7.2-4.2 1.2-5.3 1.1-1.3 3.1-1.5 4.4-.4 1.3 1.1 1.5 3.1.4 4.4-.9 1.1-4.3 1.9-5 2.1-.1-.1-.2 0-.2 0zm1.5-5.2c-.3.4-.6 1.9-.8 3.4 1.4-.4 2.9-.9 3.2-1.3.6-.7.5-1.7-.2-2.3-.6-.5-1.6-.4-2.2.2z" id="XMLID_1506_"/><path class="st3" d="M78.8 12.2c-.4 0-.7-.3-.7-.7s.3-.7.7-.7c1 0 1.8-.8 1.8-1.8V6.8c0-.4.3-.7.7-.7.4 0 .7.3.7.7V9c.1 1.8-1.4 3.2-3.2 3.2z" id="XMLID_1507_"/></g><g id="XMLID_1509_"><path class="st3" d="M241.1 7.6c-.2 0-.4-.1-.5-.2-.2-.2-.2-.4-.2-.6.1-.7.6-4.1 1.7-5.2 1.2-1.2 3.2-1.2 4.4 0 1.2 1.2 1.2 3.2 0 4.4-1.2 1-4.6 1.5-5.4 1.6zm3.1-5.4c-.4 0-.8.2-1.1.5-.4.4-.8 1.8-1.1 3.3 1.5-.2 2.9-.7 3.3-1 .6-.6.6-1.6 0-2.3-.3-.4-.7-.5-1.1-.5z" id="XMLID_1512_"/><path class="st3" d="M241 7.6h-.2c-.7-.1-4.1-.9-5-2.1-1.1-1.3-.9-3.3.4-4.4.6-.5 1.4-.8 2.3-.7.8.1 1.6.5 2.1 1.1.9 1.1 1.2 4.6 1.2 5.3 0 .2-.1.5-.3.6-.1.1-.3.2-.5.2zm-2.8-5.7c-.4 0-.7.1-1 .4-.7.6-.8 1.6-.2 2.3.3.4 1.8.9 3.2 1.3-.1-1.5-.4-3-.8-3.4-.3-.3-.7-.5-1.1-.6h-.1z" id="XMLID_1511_"/><path class="st3" d="M243.8 12.2c-1.8 0-3.3-1.5-3.3-3.3V6.8c0-.4.3-.7.7-.7s.7.3.7.7V9c0 1 .8 1.8 1.8 1.8.4 0 .7.3.7.7s-.2.7-.6.7z" id="XMLID_1510_"/></g><path class="st3" d="M161.3 22.1c-30.5 0-58.9-5.1-80.2-14.5l.6-1.4c21.1 9.3 49.4 14.4 79.6 14.4 30.3 0 58.5-5.1 79.6-14.4l.6 1.4c-21.3 9.4-49.7 14.5-80.2 14.5z" id="XMLID_1461_"/></g><g id="XMLID_1515_"><path class="st0" d="M188.2 160.2l6.6 41.4 2.2-1.9 2.5 1.1 1.7-1.8 2.2 1.2 1.9-1.9 2.6 1.2 2.1-1.9 2.2 1.2 2.1-1.9 2.6 1.1 2.2-1.9 2.8 1.1 1.9-1.8 2.6 1.1-6.7-42c-9.6 2.6-20.2 4.5-31.5 5.7zM145.3 161.6v42.6l2.4-1.5 2.4 1.5 2-1.5 1.9 1.5 2.2-1.5 2.4 1.5 2.4-1.5 2 1.5 2.3-1.5 2.5 1.5 2.4-1.5 2.6 1.5 2.1-1.5 2.4 1.5v-42.6zM102.7 154.5l-6.7 42 2.6-1.1 1.9 1.8 2.8-1.1 2.2 1.9 2.6-1.1 2.1 1.9 2.2-1.2 2.1 1.9 2.6-1.2 1.9 1.9 2.2-1.2 1.7 1.8 2.5-1.1 2.2 1.9 6.6-41.4c-11.3-1.2-21.9-3.2-31.5-5.7z"/><path class="st1" d="M110.3 180.3l1.3.2 1.3-7.8-1.3-.2.3-2.1 6.1 1-.3 2.1-1.4-.2-1.3 7.7 1.4.2-.3 2.1-6.1-1 .3-2z" id="XMLID_1526_"/><path class="st1" d="M205.2 173.4l3.7-.7.9 8.1-2.5.5-2.1-7.9zm2 8.9l3-.6.6 3-3 .6-.6-3z" id="XMLID_1525_"/><path class="st2" d="M166.9 177.3v4.4h-2.8v-2.3h-1.5l.1 7.9h1.5v2.1l-6.6.1v-2.1h1.5l-.1-7.9h-1.5v2.3h-2.8v-4.4l12.2-.1z" id="XMLID_1524_"/><g id="XMLID_1520_"><path class="st3" d="M81.5 147.1c-.8-.1-4.2-.6-5.3-1.6-1.2-1.2-1.2-3.2 0-4.4 1.2-1.2 3.2-1.2 4.4 0 1.1 1 1.6 4.5 1.7 5.2 0 .2 0 .5-.2.6-.2.1-.4.2-.6.2zm-3.1-5.4c-.4 0-.8.2-1.1.5-.6.6-.6 1.6 0 2.3.4.4 1.9.8 3.3 1-.3-1.5-.7-2.9-1.1-3.3-.3-.4-.7-.5-1.1-.5z" id="XMLID_1523_"/><path class="st3" d="M81.6 147.1c-.2 0-.3-.1-.5-.2-.2-.2-.3-.4-.3-.6 0-.7.2-4.2 1.2-5.3.5-.6 1.3-1 2.1-1.1.8-.1 1.6.2 2.3.7 1.3 1.1 1.5 3.1.4 4.4-.9 1.1-4.3 1.9-5 2.1h-.2zm1.5-5.1c-.3.4-.6 1.9-.8 3.4 1.4-.4 2.9-.9 3.2-1.3.6-.7.5-1.7-.2-2.3-.6-.6-1.6-.5-2.2.2z" id="XMLID_1522_"/><path class="st3" d="M78.8 151.8c-.4 0-.7-.3-.7-.7 0-.4.3-.7.7-.7 1 0 1.8-.8 1.8-1.8v-2.1c0-.4.3-.7.7-.7.4 0 .7.3.7.7v2.1c.1 1.7-1.4 3.2-3.2 3.2z" id="XMLID_1521_"/></g><g id="XMLID_1516_"><path class="st3" d="M241.1 147.1c-.2 0-.4-.1-.5-.2-.2-.2-.2-.4-.2-.6.1-.7.6-4.1 1.7-5.2 1.2-1.2 3.2-1.2 4.4 0 1.2 1.2 1.2 3.2 0 4.4-1.2 1-4.6 1.5-5.4 1.6zm3.1-5.4c-.4 0-.8.2-1.1.5-.4.4-.8 1.8-1.1 3.3 1.5-.3 2.9-.7 3.3-1 .6-.6.6-1.6 0-2.3-.3-.3-.7-.5-1.1-.5z" id="XMLID_1519_"/><path class="st3" d="M241 147.1h-.2c-.7-.1-4.1-.9-5-2.1-1.1-1.3-.9-3.3.4-4.4.6-.5 1.4-.8 2.3-.7.8.1 1.6.5 2.1 1.1.9 1.1 1.2 4.6 1.2 5.3 0 .2-.1.5-.3.6-.1.1-.3.2-.5.2zm-2.8-5.7c-.4 0-.7.1-1 .4-.7.6-.8 1.6-.2 2.3.3.4 1.8.9 3.2 1.3-.1-1.5-.4-3-.8-3.4-.3-.3-.7-.5-1.1-.6h-.1z" id="XMLID_1518_"/><path class="st3" d="M243.8 151.8c-1.8 0-3.3-1.5-3.3-3.3v-2.1c0-.4.3-.7.7-.7s.7.3.7.7v2.1c0 1 .8 1.8 1.8 1.8.4 0 .7.3.7.7.2.4-.2.8-.6.8z" id="XMLID_1517_"/></g><path class="st3" d="M161.3 162.3c-30.5 0-58.9-5.1-80.2-14.5l.6-1.4c21.1 9.3 49.4 14.4 79.6 14.4 30.3 0 58.5-5.1 79.6-14.4l.6 1.4c-21.3 9.4-49.7 14.5-80.2 14.5z" id="XMLID_3_"/></g><g id="XMLID_1207_"><path class="st0" d="M187.9 90.6l27.9 45.1 17.5-50.2-5.1.6c-12.8 2.1-26.3 3.6-40.3 4.5zM137.7 91.4l22.9 47.9 22.8-47.9z"/><path class="st4" d="M157.8 111.2h1.4l-.1-7.9h-1.4v-2.1l6.2-.1v2.1h-1.4l.1 7.9h1.4v2.1l-6.2.1v-2.1z" id="XMLID_1363_"/><path class="st0" d="M47.8 75l-9.4-2.4 10.2 52.1 34-40.7c-12.3-2.5-24-5.5-34.8-9zM97.6 86.6l-9.7-1.1 17.5 50.2 27.9-45.2-.6-.1c-12.1-.8-23.9-2.1-35.1-3.8z"/><g id="XMLID_1214_"><path class="st3" d="M295.1 68.5c-.2 0-.4-.1-.5-.2-.2-.2-.2-.4-.2-.6.1-.7.6-4.1 1.7-5.2.6-.6 1.3-.9 2.2-.9.8 0 1.6.3 2.2.9.6.6.9 1.4.9 2.2 0 .8-.3 1.6-.9 2.2-1.2 1-4.7 1.5-5.4 1.6zm2-5c-.4.4-.8 1.8-1.1 3.3 1.5-.2 2.9-.7 3.3-1 .3-.3.5-.7.5-1.1 0-.4-.2-.8-.5-1.1-.3-.3-.7-.5-1.1-.5-.4 0-.8.1-1.1.4z" id="XMLID_1216_"/><path class="st3" d="M295 68.5h-.2c-.7-.1-4.1-.9-5-2.1-.5-.6-.8-1.4-.7-2.3.1-.8.5-1.6 1.1-2.1 1.3-1.1 3.3-.9 4.4.4.9 1.1 1.2 4.6 1.2 5.3 0 .2-.1.5-.3.6-.1.1-.3.2-.5.2zm-2.8-5.7c-.4 0-.7.1-1 .4-.7.6-.8 1.6-.2 2.3.3.4 1.8.9 3.2 1.3-.1-1.5-.4-3-.8-3.4-.3-.4-.7-.6-1.2-.6z" id="XMLID_1215_"/><path class="st3" d="M297.8 73.1c-1.8 0-3.3-1.5-3.3-3.3v-2.1c0-.4.3-.7.7-.7.4 0 .7.3.7.7v2.1c0 1 .8 1.8 1.8 1.8.4 0 .7.3.7.7.1.5-.2.8-.6.8z" id="XMLID_1217_"/></g><g id="XMLID_1218_"><path class="st3" d="M27.5 68.5c-.8-.1-4.2-.6-5.3-1.6-1.2-1.2-1.2-3.2 0-4.4 1.2-1.2 3.2-1.2 4.4 0 1.1 1 1.6 4.5 1.7 5.2 0 .2 0 .5-.2.6-.2.1-.4.2-.6.2zm-3.1-5.4c-.4 0-.8.2-1.1.5-.3.3-.5.7-.5 1.1 0 .4.2.8.5 1.1.4.4 1.9.8 3.3 1-.3-1.5-.7-2.9-1.1-3.3-.3-.3-.7-.4-1.1-.4z" id="XMLID_1360_"/><path class="st3" d="M27.6 68.5c-.2 0-.3-.1-.5-.2-.2-.2-.3-.4-.3-.6 0-.7.2-4.2 1.2-5.3.5-.6 1.3-1 2.1-1.1.8-.1 1.6.2 2.3.7.6.5 1 1.3 1.1 2.1.1.8-.2 1.6-.7 2.3-.9 1.1-4.3 1.9-5 2.1-.1-.1-.2 0-.2 0zm2.8-5.7c-.5 0-.9.2-1.2.6-.3.4-.6 1.9-.8 3.4 1.4-.4 2.9-.9 3.2-1.3.6-.7.5-1.7-.2-2.3-.3-.3-.6-.4-1-.4z" id="XMLID_1354_"/><path class="st3" d="M24.8 73.1c-.4 0-.7-.3-.7-.7 0-.4.3-.7.7-.7 1 0 1.8-.8 1.8-1.8v-2.1c0-.4.3-.7.7-.7.4 0 .7.3.7.7v2.1c.1 1.8-1.4 3.2-3.2 3.2z" id="XMLID_1219_"/></g><path class="st5" d="M101.8 108.1l1.2.1.7-7.8-1.2-.1.2-2.1 4.2.4c1.2.1 3 .2 4.2.5 3 .8 4.3 3.3 4.1 6.2-.2 2-1 3.9-2.8 4.8-1.8 1-3.5.7-5.4.6l-5.3-.5.1-2.1zm4.7.4l1.6.1c2.4.2 3.3-1.6 3.5-3.7.2-2.2-.3-3.9-2.7-4.1l-1.7-.2-.7 7.9z" id="XMLID_1367_"/><path class="st5" d="M207.4 110.1l1.2-.2-1.5-7.7-1.2.2-.4-2.1 4.2-.8c1.2-.2 3-.7 4.2-.7 3.1-.1 5.1 2 5.6 4.9.4 1.9.1 4-1.4 5.4-1.4 1.4-3.2 1.7-5.1 2l-5.3 1-.3-2zm4.6-.9l1.6-.3c2.4-.5 2.7-2.4 2.3-4.6-.4-2.1-1.4-3.6-3.7-3.2l-1.7.3 1.5 7.8z" id="XMLID_1371_"/><path class="st0" d="M238.7 84.2l33.8 40.5 10.2-52.1-3.4.9c-12.3 4.2-26 7.9-40.6 10.7z"/><path class="st3" d="M161.3 92.1c-51 0-98.6-8.6-134.2-24.2l.6-1.4C63.1 82 110.5 90.6 161.3 90.6s98.2-8.6 133.6-24.1l.6 1.4c-35.6 15.6-83.2 24.2-134.2 24.2z" id="XMLID_1208_"/></g><g id="XMLID_1465_"><g id="XMLID_1485_"><path class="st6" d="M51.6 167.6l-4 1.8-3-9.5 4-1.8z" id="XMLID_1492_"/><path class="st6" d="M60.6 185.1l-4 1.8-3.1-9.4 4-1.8z" id="XMLID_1489_"/><path class="st4" d="M57.5 175.7l-4 1.8-5.9-8.1 4-1.8z" id="XMLID_1487_"/></g><g id="XMLID_1481_"><path class="st7" d="M239.5 57.8l4 1.8-5 8.5-4-1.8z" id="XMLID_1484_"/><path class="st7" d="M246.5 39.4l4.1 1.7-5 8.6-4-1.8z" id="XMLID_1483_"/><path class="st8" d="M241.6 47.9l4 1.8-2.1 9.9-4-1.8z" id="XMLID_1482_"/></g><g id="XMLID_1476_"><path class="st8" d="M134.4 135.7H130l1.1-9.9h4.4z" id="XMLID_1478_"/><path class="st7" d="M136.5 145.5h-4.4l-2.1-9.8h4.4z" id="XMLID_1477_"/></g><g id="XMLID_1473_"><path class="st6" d="M252.6 177.5l-4-1.8-3.1 9.4 4.1 1.8z" id="XMLID_1475_"/><path class="st4" d="M258.5 169.4l-4-1.8-5.9 8.1 4 1.8z" id="XMLID_1474_"/></g><circle class="st9" cx="47.7" cy="53.7" r="3.7" id="XMLID_1472_"/><circle class="st2" cx="312.5" cy="130.1" r="3.7" id="XMLID_1471_"/><circle class="st8" cx="201.3" cy="4" r="3.7" id="XMLID_1470_"/><circle class="st10" cx="262.3" cy="26.8" r="3.7" id="XMLID_1469_"/><circle class="st10" cx="76.1" cy="126.2" r="3.7" id="XMLID_1468_"/><path class="st1" d="M.3 44.6l6.5-2.8-5.5-3.7z" id="XMLID_1467_"/><path class="st4" d="M244.5 129.8l6.4 2.9-.9-6.5z" id="XMLID_1466_"/></g></g></svg>
